<?xml version="1.0" standalone="no"?>
<!DOCTYPE svg PUBLIC "-//W3C//DTD SVG 20010904//EN"
 "http://www.w3.org/TR/2001/REC-SVG-20010904/DTD/svg10.dtd">
<svg version="1.0" xmlns="http://www.w3.org/2000/svg"
 width="512.000000pt" height="512.000000pt" viewBox="0 0 512.000000 512.000000"
 preserveAspectRatio="xMidYMid meet">

<g transform="translate(0.000000,512.000000) scale(0.100000,-0.100000)"
fill="#000000" stroke="none">
<path d="M1245 5114 c-16 -2 -62 -11 -102 -20 -401 -85 -703 -456 -703 -862
l0 -89 -76 -5 c-65 -4 -79 -9 -102 -32 l-27 -26 -3 -1578 c-2 -1112 0 -1588 8
-1614 17 -58 46 -68 196 -68 l127 0 972 -410 c535 -226 982 -410 994 -410 36
0 75 48 206 255 70 110 128 201 130 203 1 1 166 -34 366 -78 200 -44 379 -80
397 -80 71 0 71 0 157 295 31 105 58 198 61 208 5 15 19 17 103 17 199 0 318
44 435 162 83 85 119 147 146 254 18 68 20 111 20 351 l0 273 45 0 c106 0 213
73 264 180 l26 55 3 332 c4 355 -2 434 -40 509 -43 88 -138 150 -244 161 l-54
6 0 258 c0 349 -15 422 -114 557 -48 65 -121 125 -201 165 l-51 25 -88 272
c-58 178 -95 278 -109 291 -31 29 -73 24 -211 -25 -69 -25 -127 -42 -129 -38
-3 4 -26 71 -51 150 -50 150 -65 172 -118 172 -16 0 -307 -99 -647 -220 -341
-121 -622 -220 -625 -220 -3 0 -6 6 -6 14 0 32 -103 217 -157 281 -124 148
-301 261 -478 305 -77 20 -258 33 -320 24z m243 -190 c93 -18 236 -86 314
-148 108 -86 205 -235 243 -372 9 -33 19 -105 22 -161 l6 -103 -107 0 -106 0
0 68 c0 140 -55 270 -158 371 -207 203 -520 200 -728 -7 -98 -98 -166 -278
-148 -392 l7 -40 -106 0 -105 0 -6 38 c-8 45 7 167 30 242 37 125 100 226 202
322 174 164 406 230 640 182z m1993 -386 c34 -106 77 -239 95 -295 l32 -103
-679 0 -679 0 0 88 0 87 578 206 c317 114 580 207 584 208 3 0 34 -86 69 -191z
m-2056 -2 c70 -18 105 -38 155 -88 71 -70 112 -187 96 -273 l-7 -35 -329 0
-330 0 -1 38 c-4 148 49 255 159 319 85 50 169 63 257 39z m2504 -219 c28 -87
51 -163 51 -168 0 -6 -37 -9 -91 -7 l-91 3 -44 135 c-24 74 -42 139 -41 144 4
13 150 66 159 58 3 -4 29 -78 57 -165z m-1735 -508 c53 -62 17 -148 -62 -149
-46 0 -71 16 -88 56 -12 29 -12 39 0 68 17 41 39 55 88 56 28 0 42 -7 62 -31z
m1927 3 c95 -49 157 -178 125 -257 -17 -39 -42 -55 -86 -55 -39 0 -90 47 -90
83 0 14 -9 35 -19 48 l-19 24 -829 5 c-455 3 -834 9 -842 14 -7 5 -19 24 -27
42 -12 29 -12 39 0 68 8 19 22 39 33 45 12 7 280 10 859 11 l842 0 53 -28z
m478 -998 c65 -54 28 -154 -57 -154 -90 0 -122 122 -43 165 39 21 66 18 100
-11z m-879 -221 c35 -24 48 -43 60 -83 28 -102 -72 -194 -174 -160 -43 14 -83
59 -91 103 -9 46 19 111 58 136 40 26 113 28 147 4z m-1792 -1928 c389 -86
717 -158 729 -161 20 -5 14 -17 -73 -152 -52 -81 -99 -146 -103 -145 -15 4
-1415 595 -1431 604 -9 5 21 9 78 9 83 0 164 -16 800 -155z m1732 146 c0 -10
-90 -314 -94 -318 -2 -3 -1453 315 -1471 322 -5 2 344 4 778 4 463 1 787 -3
787 -8z"/>
</g>
</svg>
